<?xml version="1.0" encoding="UTF-8" standalone="no"?>
<!-- Generator: Adobe Illustrator 27.0.0, SVG Export Plug-In . SVG Version: 6.00 Build 0)  -->

<svg
   version="1.1"
   id="Layer_1"
   x="0px"
   y="0px"
   viewBox="0 0 1800 500"
   xml:space="preserve"
   sodipodi:docname="oresb-logo.svg"
   width="1800"
   height="500"
   inkscape:version="1.3.2 (091e20e, 2023-11-25)"
   xmlns:inkscape="http://www.inkscape.org/namespaces/inkscape"
   xmlns:sodipodi="http://sodipodi.sourceforge.net/DTD/sodipodi-0.dtd"
   xmlns="http://www.w3.org/2000/svg"
   xmlns:svg="http://www.w3.org/2000/svg"><defs
   id="defs97" /><sodipodi:namedview
   id="namedview97"
   pagecolor="#ffffff"
   bordercolor="#000000"
   borderopacity="0.25"
   inkscape:showpageshadow="2"
   inkscape:pageopacity="0.0"
   inkscape:pagecheckerboard="0"
   inkscape:deskcolor="#d1d1d1"
   inkscape:zoom="0.40153124"
   inkscape:cx="882.87028"
   inkscape:cy="263.98942"
   inkscape:window-width="1680"
   inkscape:window-height="917"
   inkscape:window-x="0"
   inkscape:window-y="25"
   inkscape:window-maximized="1"
   inkscape:current-layer="g96" />
<style
   type="text/css"
   id="style1">
	.st0{fill:url(#SVGID_1_);}
	.st1{fill:url(#SVGID_00000157272046998057077730000013564666412902999955_);}
	.st2{fill:url(#SVGID_00000005248333835137112900000004059370451253840062_);}
	.st3{fill:url(#SVGID_00000018228327825905711210000011573920702808912266_);}
	.st4{fill:url(#SVGID_00000129926825563669212440000000003721532433673605_);}
	.st5{fill:url(#SVGID_00000045610503840727990170000007860978868093530266_);}
	.st6{fill:url(#SVGID_00000176745030720704744020000017095205412907765147_);}
	.st7{fill:url(#SVGID_00000100360182016779500160000008042810657477114771_);}
	.st8{fill:url(#SVGID_00000091717942442635309150000003275345790716743559_);}
	.st9{fill:url(#SVGID_00000139287314920359136480000005066818604073114036_);}
	.st10{fill:url(#SVGID_00000131360514511014826240000010940982454330940561_);}
	.st11{fill:url(#SVGID_00000048476451486010436510000015338471204305723570_);}
	.st12{fill:url(#SVGID_00000143575862985895627800000010761376961279196824_);}
	.st13{fill:url(#SVGID_00000118360816072840639310000014718673158316300961_);}
	.st14{fill:url(#SVGID_00000026162359282997761690000012675896935915460021_);}
	.st15{fill:url(#SVGID_00000071520869642722979870000005801209422947724213_);}
	.st16{fill:url(#SVGID_00000008859420280546042610000002637706166447320485_);}
	.st17{fill:url(#SVGID_00000094592731888653610200000000190986868065496466_);}
	.st18{fill:url(#SVGID_00000139273913983260250150000013985797028351904430_);}
	.st19{fill:url(#SVGID_00000003818124565259221950000009444546826823936700_);}
	.st20{fill:url(#SVGID_00000152947424509340662310000015809912732585111206_);}
	.st21{fill:url(#SVGID_00000058580724034047325370000011105928568812942727_);}
	.st22{fill:url(#SVGID_00000069377243029356281420000008368752902810322083_);}
	.st23{fill:url(#SVGID_00000000221043981440407950000008413149736602868904_);}
	.st24{fill:url(#SVGID_00000057827081927472590050000001977310174095125950_);}
	.st25{fill:url(#SVGID_00000072999886107584433860000018086559402632430983_);}
	.st26{fill:url(#SVGID_00000176044762244001169450000017063436891069848448_);}
	.st27{fill:url(#SVGID_00000176013089324941355190000011497929645878022291_);}
	.st28{fill:url(#SVGID_00000061461565220070556260000008173866880121851265_);}
	.st29{fill:url(#SVGID_00000179630497355056119110000016120876773577238444_);}
	.st30{fill:#010101;}
	.st31{fill:url(#SVGID_00000067934884167936249380000015530643521888323239_);}
</style>
<g
   id="g97"
   transform="translate(71.865,-250.31)">
	<g
   id="g36">
		<linearGradient
   id="SVGID_1_"
   gradientUnits="userSpaceOnUse"
   x1="241.1792"
   y1="528.84412"
   x2="135.8903"
   y2="681.177">
			<stop
   offset="0"
   style="stop-color:#EE2039"
   id="stop1" />
			<stop
   offset="0.5"
   style="stop-color:#991F20"
   id="stop2" />
			<stop
   offset="1"
   style="stop-color:#EE2039"
   id="stop3" />
		</linearGradient>
		<path
   class="st0"
   d="m 174,620.73 c 0,0 5.01,-21.57 -0.63,-50.41 26.9,-8.29 48.22,-25.3 51.25,-27.78 l 16.91,-13.94 c 1.67,11.76 12.31,104.91 -67.53,92.13 z"
   id="path3"
   style="fill:url(#SVGID_1_)" />
		
			<linearGradient
   id="SVGID_00000024002180318010822190000010112373848415052938_"
   gradientUnits="userSpaceOnUse"
   x1="210.0345"
   y1="528.03632"
   x2="18.2743"
   y2="508.3226">
			<stop
   offset="0"
   style="stop-color:#EE2039"
   id="stop4" />
			<stop
   offset="0.5"
   style="stop-color:#991F20"
   id="stop5" />
			<stop
   offset="1"
   style="stop-color:#EE2039"
   id="stop6" />
		</linearGradient>
		<path
   style="fill:url(#SVGID_00000024002180318010822190000010112373848415052938_)"
   d="m 210,526.68 c -9.37,7.31 -84.72,63.12 -113.56,-12.44 0,0 21.18,-6.43 43.33,-25.71 20.47,19.02 45.58,28.92 49.7,30.46 z"
   id="path6" />
		
			<linearGradient
   id="SVGID_00000031185720589457466810000005596302479426683044_"
   gradientUnits="userSpaceOnUse"
   x1="194.3891"
   y1="500.24939"
   x2="110.158"
   y2="306.69699">
			<stop
   offset="0"
   style="stop-color:#EE2039"
   id="stop7" />
			<stop
   offset="0.5"
   style="stop-color:#991F20"
   id="stop8" />
			<stop
   offset="1"
   style="stop-color:#EE2039"
   id="stop9" />
		</linearGradient>
		<path
   style="fill:url(#SVGID_00000031185720589457466810000005596302479426683044_)"
   d="m 195.86,498.4 c -11.05,-4.48 -96.98,-41.84 -46.01,-104.57 0,0 16.15,15.11 43.94,24.66 -6.24,27.32 -2.23,54.06 -1.53,58.29 z"
   id="path9" />
		
			<linearGradient
   id="SVGID_00000155109269700381632450000000243570665252445883_"
   gradientUnits="userSpaceOnUse"
   x1="210.1627"
   y1="471.58621"
   x2="336.9574"
   y2="303.57199">
			<stop
   offset="0"
   style="stop-color:#EE2039"
   id="stop10" />
			<stop
   offset="0.5"
   style="stop-color:#991F20"
   id="stop11" />
			<stop
   offset="1"
   style="stop-color:#EE2039"
   id="stop12" />
		</linearGradient>
		<path
   style="fill:url(#SVGID_00000155109269700381632450000000243570665252445883_)"
   d="m 281.48,430.3 c -26.92,8.29 -48.24,25.3 -51.25,27.8 l -16.93,13.94 c -1.64,-11.69 -12.34,-104.94 67.56,-92.15 0,0 -5.03,21.57 0.62,50.41 z"
   id="path12" />
		
			<linearGradient
   id="SVGID_00000149371847417902894850000013076512746854185344_"
   gradientUnits="userSpaceOnUse"
   x1="245.23241"
   y1="472.34149"
   x2="433.85629"
   y2="492.5032">
			<stop
   offset="0"
   style="stop-color:#EE2039"
   id="stop13" />
			<stop
   offset="0.5"
   style="stop-color:#991F20"
   id="stop14" />
			<stop
   offset="1"
   style="stop-color:#EE2039"
   id="stop15" />
		</linearGradient>
		<path
   style="fill:url(#SVGID_00000149371847417902894850000013076512746854185344_)"
   d="m 358.43,486.38 c 0,0 -21.18,6.43 -43.35,25.71 -20.45,-19.02 -45.56,-28.92 -49.68,-30.46 l -20.53,-7.68 c 9.36,-7.32 84.71,-63.12 113.56,12.43 z"
   id="path15" />
		
			<linearGradient
   id="SVGID_00000005259685837631898480000005287366811614458250_"
   gradientUnits="userSpaceOnUse"
   x1="257.71561"
   y1="503.65561"
   x2="342.39471"
   y2="672.1178">
			<stop
   offset="0"
   style="stop-color:#EE2039"
   id="stop16" />
			<stop
   offset="0.5"
   style="stop-color:#991F20"
   id="stop17" />
			<stop
   offset="1"
   style="stop-color:#EE2039"
   id="stop18" />
		</linearGradient>
		<path
   style="fill:url(#SVGID_00000005259685837631898480000005287366811614458250_)"
   d="m 304.99,606.79 c 0,0 -16.15,-15.11 -43.94,-24.66 6.24,-27.32 2.23,-54.08 1.53,-58.29 l -3.6,-21.63 c 10.99,4.45 97.04,41.81 46.01,104.58 z"
   id="path18" />
		
			<linearGradient
   id="SVGID_00000128476774279135414910000008270080193659800508_"
   gradientUnits="userSpaceOnUse"
   x1="8.0418997"
   y1="557.97968"
   x2="165.7513"
   y2="635.4903">
			<stop
   offset="0"
   style="stop-color:#EE2039"
   id="stop19" />
			<stop
   offset="0.5"
   style="stop-color:#991F20"
   id="stop20" />
			<stop
   offset="1"
   style="stop-color:#EE2039"
   id="stop21" />
		</linearGradient>
		<path
   style="fill:url(#SVGID_00000128476774279135414910000008270080193659800508_)"
   d="m 100.52,553.13 c -7.96,2.72 -22.91,6.64 -41.62,4.51 -20.24,-2.31 -34.75,-10.55 -41.88,-15.26 3.24,9.92 9.06,25.28 19.34,42.34 7.29,12.1 49.96,82.35 94.94,74.7 14.76,-2.51 29.38,-13.88 42.7,-38.68 -3.18,-1.49 -6.39,-3.12 -9.61,-4.9 -30.34,-16.83 -50.55,-41.07 -63.87,-62.71 z"
   id="path21" />
		
			<linearGradient
   id="SVGID_00000108997354744441255780000006110785054238977185_"
   gradientUnits="userSpaceOnUse"
   x1="67.730499"
   y1="338.4241"
   x2="79.379402"
   y2="512.26282">
			<stop
   offset="0"
   style="stop-color:#EE2039"
   id="stop22" />
			<stop
   offset="0.5"
   style="stop-color:#991F20"
   id="stop23" />
			<stop
   offset="1"
   style="stop-color:#EE2039"
   id="stop24" />
		</linearGradient>
		<path
   style="fill:url(#SVGID_00000108997354744441255780000006110785054238977185_)"
   d="m 118.23,416.81 c -6.33,-5.54 -17.21,-16.52 -24.72,-33.79 -8.12,-18.68 -8.24,-35.37 -7.72,-43.9 -6.98,7.77 -17.36,20.49 -26.99,37.92 -6.83,12.37 -46.34,84.44 -17.22,119.58 9.56,11.53 26.71,18.5 54.85,17.64 -0.3,-3.5 -0.49,-7.1 -0.56,-10.78 -0.61,-34.68 10.28,-64.31 22.36,-86.67 z"
   id="path24" />
		
			<linearGradient
   id="SVGID_00000161612610795706225250000007043198598077877633_"
   gradientUnits="userSpaceOnUse"
   x1="286.85172"
   y1="282.08441"
   x2="140.79671"
   y2="379.30499">
			<stop
   offset="0"
   style="stop-color:#EE2039"
   id="stop25" />
			<stop
   offset="0.5"
   style="stop-color:#991F20"
   id="stop26" />
			<stop
   offset="1"
   style="stop-color:#EE2039"
   id="stop27" />
		</linearGradient>
		<path
   style="fill:url(#SVGID_00000161612610795706225250000007043198598077877633_)"
   d="m 245.14,364 c 1.63,-8.26 5.7,-23.16 16.91,-38.3 12.12,-16.37 26.51,-24.82 34.16,-28.64 -10.21,-2.16 -26.43,-4.79 -46.33,-4.42 -14.13,0.26 -96.3,2.09 -112.17,44.87 -5.21,14.04 -2.67,32.38 12.15,56.32 2.88,-2.01 5.9,-3.97 9.05,-5.87 29.73,-17.86 60.83,-23.25 86.23,-23.96 z"
   id="path27" />
		
			<linearGradient
   id="SVGID_00000070841192276831882880000005820706102526175670_"
   gradientUnits="userSpaceOnUse"
   x1="445.02991"
   y1="442.80551"
   x2="291.80099"
   y2="365.74301">
			<stop
   offset="0"
   style="stop-color:#EE2039"
   id="stop28" />
			<stop
   offset="0.5"
   style="stop-color:#991F20"
   id="stop29" />
			<stop
   offset="1"
   style="stop-color:#EE2039"
   id="stop30" />
		</linearGradient>
		<path
   style="fill:url(#SVGID_00000070841192276831882880000005820706102526175670_)"
   d="m 354.34,447.49 c 7.96,-2.72 22.91,-6.64 41.62,-4.51 20.24,2.31 34.75,10.55 41.88,15.26 -3.24,-9.92 -9.06,-25.28 -19.34,-42.34 -7.29,-12.1 -49.96,-82.35 -94.94,-74.7 -14.76,2.51 -29.38,13.88 -42.7,38.68 3.18,1.49 6.39,3.12 9.61,4.9 30.33,16.83 50.54,41.07 63.87,62.71 z"
   id="path30" />
		
			<linearGradient
   id="SVGID_00000174574601063953701200000004705051946313940615_"
   gradientUnits="userSpaceOnUse"
   x1="386.44089"
   y1="658.76709"
   x2="375.68799"
   y2="486.72061">
			<stop
   offset="0"
   style="stop-color:#EE2039"
   id="stop31" />
			<stop
   offset="0.5"
   style="stop-color:#991F20"
   id="stop32" />
			<stop
   offset="1"
   style="stop-color:#EE2039"
   id="stop33" />
		</linearGradient>
		<path
   style="fill:url(#SVGID_00000174574601063953701200000004705051946313940615_)"
   d="m 336.62,583.81 c 6.33,5.54 17.21,16.52 24.72,33.79 8.12,18.68 8.24,35.37 7.72,43.9 6.98,-7.77 17.36,-20.49 26.99,-37.92 6.83,-12.37 46.34,-84.44 17.22,-119.58 -9.56,-11.53 -26.71,-18.5 -54.85,-17.64 0.3,3.5 0.49,7.1 0.56,10.77 0.61,34.69 -10.28,64.32 -22.36,86.68 z"
   id="path33" />
		
			<linearGradient
   id="SVGID_00000021836728804914694840000017841584604268578998_"
   gradientUnits="userSpaceOnUse"
   x1="167.741"
   y1="718.09448"
   x2="313.35321"
   y2="622.21448">
			<stop
   offset="0"
   style="stop-color:#EE2039"
   id="stop34" />
			<stop
   offset="0.5"
   style="stop-color:#991F20"
   id="stop35" />
			<stop
   offset="1"
   style="stop-color:#EE2039"
   id="stop36" />
		</linearGradient>
		<path
   style="fill:url(#SVGID_00000021836728804914694840000017841584604268578998_)"
   d="m 209.71,636.62 c -1.63,8.26 -5.7,23.16 -16.91,38.3 -12.12,16.37 -26.51,24.82 -34.16,28.64 10.21,2.16 26.43,4.79 46.33,4.42 14.13,-0.26 96.3,-2.09 112.17,-44.87 5.21,-14.04 2.67,-32.38 -12.15,-56.32 -2.88,2.01 -5.9,3.97 -9.05,5.87 -29.72,17.86 -60.83,23.25 -86.23,23.96 z"
   id="path36" />
	</g>
	<g
   id="g96">
		<g
   id="g90">
			
				<linearGradient
   id="SVGID_00000178885909325463155400000000391684949701192321_"
   gradientUnits="userSpaceOnUse"
   x1="937.02722"
   y1="631.14282"
   x2="1645.0637"
   y2="631.14282">
				<stop
   offset="0"
   style="stop-color:#EE2039"
   id="stop37" />
				<stop
   offset="0.5"
   style="stop-color:#991F20"
   id="stop38" />
				<stop
   offset="1"
   style="stop-color:#EE2039"
   id="stop39" />
			</linearGradient>
			<path
   style="fill:url(#SVGID_00000178885909325463155400000000391684949701192321_)"
   d="m 951.13,626.74 c 0.6,-1.35 1.48,-2.54 2.62,-3.55 1.14,-1.01 2.49,-1.8 4.05,-2.37 1.56,-0.56 3.29,-0.85 5.2,-0.85 h 16.34 c 1.91,0 3.64,0.28 5.2,0.85 1.56,0.56 2.91,1.35 4.05,2.37 1.14,1.02 2.01,2.2 2.62,3.55 0.61,1.35 0.91,2.82 0.91,4.4 0,1.58 -0.3,3.05 -0.91,4.4 -0.61,1.35 -1.48,2.54 -2.62,3.55 -1.14,1.02 -2.49,1.81 -4.05,2.37 -1.56,0.56 -3.29,0.85 -5.2,0.85 H 963 c -1.91,0 -3.64,-0.28 -5.2,-0.85 -1.56,-0.56 -2.91,-1.35 -4.05,-2.37 -1.14,-1.02 -2.01,-2.2 -2.62,-3.55 -0.61,-1.35 -0.91,-2.82 -0.91,-4.4 0,-1.58 0.3,-3.04 0.91,-4.4 z m 4.54,8.26 c 0.7,1.14 1.68,2.04 2.95,2.69 1.27,0.66 2.78,0.98 4.52,0.98 h 16.03 c 1.74,0 3.25,-0.33 4.52,-0.98 1.27,-0.66 2.26,-1.55 2.95,-2.69 0.7,-1.14 1.05,-2.43 1.05,-3.86 0,-1.46 -0.35,-2.75 -1.05,-3.88 -0.7,-1.13 -1.68,-2.02 -2.95,-2.68 -1.27,-0.66 -2.78,-0.98 -4.52,-0.98 h -16.03 c -1.74,0 -3.25,0.33 -4.52,0.98 -1.27,0.66 -2.26,1.55 -2.95,2.68 -0.7,1.13 -1.05,2.42 -1.05,3.88 0,1.44 0.35,2.73 1.05,3.86 z"
   id="path39" />
			
				<linearGradient
   id="SVGID_00000008841266651645535140000005531334643170824374_"
   gradientUnits="userSpaceOnUse"
   x1="937.02722"
   y1="631.14282"
   x2="1645.0637"
   y2="631.14282">
				<stop
   offset="0"
   style="stop-color:#EE2039"
   id="stop40" />
				<stop
   offset="0.5"
   style="stop-color:#991F20"
   id="stop41" />
				<stop
   offset="1"
   style="stop-color:#EE2039"
   id="stop42" />
			</linearGradient>
			<path
   style="fill:url(#SVGID_00000008841266651645535140000005531334643170824374_)"
   d="m 997.43,620.16 h 24.65 c 1.74,0 3.25,0.3 4.52,0.91 1.27,0.61 2.25,1.42 2.94,2.43 0.69,1.02 1.03,2.15 1.03,3.4 0,1.25 -0.34,2.39 -1.03,3.42 -0.69,1.03 -1.66,1.84 -2.92,2.43 -1.26,0.59 -2.78,0.89 -4.54,0.89 h -3.35 l 13.69,8.49 h -6.59 l -13.57,-8.49 h -10.49 v 8.49 h -4.34 z m 4.33,10.03 h 19.73 c 1.46,0 2.57,-0.31 3.34,-0.92 0.77,-0.61 1.15,-1.42 1.15,-2.4 0,-0.96 -0.38,-1.75 -1.15,-2.35 -0.77,-0.6 -1.88,-0.91 -3.34,-0.91 h -19.73 z"
   id="path42" />
			
				<linearGradient
   id="SVGID_00000101072879516776752860000012520394239183022001_"
   gradientUnits="userSpaceOnUse"
   x1="937.02722"
   y1="631.14282"
   x2="1645.0637"
   y2="631.14282">
				<stop
   offset="0"
   style="stop-color:#EE2039"
   id="stop43" />
				<stop
   offset="0.5"
   style="stop-color:#991F20"
   id="stop44" />
				<stop
   offset="1"
   style="stop-color:#EE2039"
   id="stop45" />
			</linearGradient>
			<path
   style="fill:url(#SVGID_00000101072879516776752860000012520394239183022001_)"
   d="m 1041.12,642.13 h -4.31 v -21.97 h 4.31 z"
   id="path45" />
			
				<linearGradient
   id="SVGID_00000155862135607184802930000014544990829377476233_"
   gradientUnits="userSpaceOnUse"
   x1="937.02722"
   y1="631.14282"
   x2="1645.0637"
   y2="631.14282">
				<stop
   offset="0"
   style="stop-color:#EE2039"
   id="stop46" />
				<stop
   offset="0.5"
   style="stop-color:#991F20"
   id="stop47" />
				<stop
   offset="1"
   style="stop-color:#EE2039"
   id="stop48" />
			</linearGradient>
			<path
   style="fill:url(#SVGID_00000155862135607184802930000014544990829377476233_)"
   d="m 1047.12,620.16 h 30.87 v 3.35 h -26.56 v 5.26 h 26 v 3.32 h -26 v 6.68 h 26.56 v 3.35 h -30.87 z"
   id="path48" />
			
				<linearGradient
   id="SVGID_00000179636450627910790370000011035651430115246489_"
   gradientUnits="userSpaceOnUse"
   x1="937.02722"
   y1="631.14282"
   x2="1645.0637"
   y2="631.14282">
				<stop
   offset="0"
   style="stop-color:#EE2039"
   id="stop49" />
				<stop
   offset="0.5"
   style="stop-color:#991F20"
   id="stop50" />
				<stop
   offset="1"
   style="stop-color:#EE2039"
   id="stop51" />
			</linearGradient>
			<path
   style="fill:url(#SVGID_00000179636450627910790370000011035651430115246489_)"
   d="m 1083.03,620.16 h 9.08 l 18.71,18.53 h 2.77 v -18.53 h 4.31 v 21.97 h -9.08 l -18.71,-18.53 h -2.77 v 18.53 h -4.31 z"
   id="path51" />
			
				<linearGradient
   id="SVGID_00000031901879096879039030000010925325103272316593_"
   gradientUnits="userSpaceOnUse"
   x1="937.02722"
   y1="631.14282"
   x2="1645.0637"
   y2="631.14282">
				<stop
   offset="0"
   style="stop-color:#EE2039"
   id="stop52" />
				<stop
   offset="0.5"
   style="stop-color:#991F20"
   id="stop53" />
				<stop
   offset="1"
   style="stop-color:#EE2039"
   id="stop54" />
			</linearGradient>
			<path
   style="fill:url(#SVGID_00000031901879096879039030000010925325103272316593_)"
   d="m 1143.13,642.13 h -4.31 v -18.37 h -16.65 v -3.6 h 37.57 v 3.6 h -16.62 v 18.37 z"
   id="path54" />
			
				<linearGradient
   id="SVGID_00000027565818649665891900000012714581954717849484_"
   gradientUnits="userSpaceOnUse"
   x1="937.02722"
   y1="631.14282"
   x2="1645.0637"
   y2="631.14282">
				<stop
   offset="0"
   style="stop-color:#EE2039"
   id="stop55" />
				<stop
   offset="0.5"
   style="stop-color:#991F20"
   id="stop56" />
				<stop
   offset="1"
   style="stop-color:#EE2039"
   id="stop57" />
			</linearGradient>
			<path
   style="fill:url(#SVGID_00000027565818649665891900000012714581954717849484_)"
   d="m 1176.06,620.16 h 7.2 l 16.86,21.97 h -5.39 l -3.91,-5.23 h -22.49 l -3.94,5.23 h -5.17 z m 12.19,13.32 -7.29,-9.76 h -2.68 l -7.35,9.76 z"
   id="path57" />
			
				<linearGradient
   id="SVGID_00000079465006226165176730000002967559237858569094_"
   gradientUnits="userSpaceOnUse"
   x1="937.02722"
   y1="631.14282"
   x2="1645.0637"
   y2="631.14282">
				<stop
   offset="0"
   style="stop-color:#EE2039"
   id="stop58" />
				<stop
   offset="0.5"
   style="stop-color:#991F20"
   id="stop59" />
				<stop
   offset="1"
   style="stop-color:#EE2039"
   id="stop60" />
			</linearGradient>
			<path
   style="fill:url(#SVGID_00000079465006226165176730000002967559237858569094_)"
   d="m 1204.37,620.16 h 4.46 v 18.22 h 23.26 v 3.75 h -27.73 v -21.97 z"
   id="path60" />
			
				<linearGradient
   id="SVGID_00000175312483188440099060000003557824411419595708_"
   gradientUnits="userSpaceOnUse"
   x1="937.02722"
   y1="631.14282"
   x2="1645.0637"
   y2="631.14282">
				<stop
   offset="0"
   style="stop-color:#EE2039"
   id="stop61" />
				<stop
   offset="0.5"
   style="stop-color:#991F20"
   id="stop62" />
				<stop
   offset="1"
   style="stop-color:#EE2039"
   id="stop63" />
			</linearGradient>
			<path
   style="fill:url(#SVGID_00000175312483188440099060000003557824411419595708_)"
   d="m 1249.98,620.16 h 24.65 c 1.74,0 3.25,0.3 4.52,0.91 1.27,0.61 2.25,1.42 2.94,2.43 0.69,1.02 1.03,2.15 1.03,3.4 0,1.25 -0.34,2.39 -1.03,3.42 -0.69,1.03 -1.66,1.84 -2.92,2.43 -1.26,0.59 -2.78,0.89 -4.54,0.89 h -3.35 l 13.69,8.49 h -6.59 l -13.57,-8.49 h -10.49 v 8.49 h -4.34 z m 4.33,10.03 h 19.73 c 1.46,0 2.57,-0.31 3.34,-0.92 0.77,-0.61 1.15,-1.42 1.15,-2.4 0,-0.96 -0.38,-1.75 -1.15,-2.35 -0.77,-0.6 -1.88,-0.91 -3.34,-0.91 h -19.73 z"
   id="path63" />
			
				<linearGradient
   id="SVGID_00000074422095467798686710000001599308910146261423_"
   gradientUnits="userSpaceOnUse"
   x1="937.02722"
   y1="631.14282"
   x2="1645.0637"
   y2="631.14282">
				<stop
   offset="0"
   style="stop-color:#EE2039"
   id="stop64" />
				<stop
   offset="0.5"
   style="stop-color:#991F20"
   id="stop65" />
				<stop
   offset="1"
   style="stop-color:#EE2039"
   id="stop66" />
			</linearGradient>
			<path
   style="fill:url(#SVGID_00000074422095467798686710000001599308910146261423_)"
   d="m 1289.36,620.16 h 30.87 v 3.35 h -26.56 v 5.26 h 26 v 3.32 h -26 v 6.68 h 26.56 v 3.35 h -30.87 z"
   id="path66" />
			
				<linearGradient
   id="SVGID_00000131356130233603793170000005028420567431172543_"
   gradientUnits="userSpaceOnUse"
   x1="937.02722"
   y1="631.14282"
   x2="1645.0637"
   y2="631.14282">
				<stop
   offset="0"
   style="stop-color:#EE2039"
   id="stop67" />
				<stop
   offset="0.5"
   style="stop-color:#991F20"
   id="stop68" />
				<stop
   offset="1"
   style="stop-color:#EE2039"
   id="stop69" />
			</linearGradient>
			<path
   style="fill:url(#SVGID_00000131356130233603793170000005028420567431172543_)"
   d="m 1340.35,620.16 h 7.2 l 16.86,21.97 h -5.39 l -3.91,-5.23 h -22.49 l -3.94,5.23 h -5.17 z m 12.19,13.32 -7.29,-9.76 h -2.68 l -7.35,9.76 z"
   id="path69" />
			
				<linearGradient
   id="SVGID_00000084530345856006011660000001788774446649868684_"
   gradientUnits="userSpaceOnUse"
   x1="937.02722"
   y1="631.14282"
   x2="1645.0637"
   y2="631.14282">
				<stop
   offset="0"
   style="stop-color:#EE2039"
   id="stop70" />
				<stop
   offset="0.5"
   style="stop-color:#991F20"
   id="stop71" />
				<stop
   offset="1"
   style="stop-color:#EE2039"
   id="stop72" />
			</linearGradient>
			<path
   style="fill:url(#SVGID_00000084530345856006011660000001788774446649868684_)"
   d="m 1368.67,620.16 h 4.46 v 18.22 h 23.26 v 3.75 h -27.73 v -21.97 z"
   id="path72" />
			
				<linearGradient
   id="SVGID_00000105398115622039795140000016665359315337552295_"
   gradientUnits="userSpaceOnUse"
   x1="937.02722"
   y1="631.14282"
   x2="1645.0637"
   y2="631.14282">
				<stop
   offset="0"
   style="stop-color:#EE2039"
   id="stop73" />
				<stop
   offset="0.5"
   style="stop-color:#991F20"
   id="stop74" />
				<stop
   offset="1"
   style="stop-color:#EE2039"
   id="stop75" />
			</linearGradient>
			<path
   style="fill:url(#SVGID_00000105398115622039795140000016665359315337552295_)"
   d="m 1414.21,620.16 h 30.87 v 3.35 h -26.56 v 5.26 h 26 v 3.32 h -26 v 6.68 h 26.56 v 3.35 h -30.87 z"
   id="path75" />
			
				<linearGradient
   id="SVGID_00000044146667542091740030000014293706924708467871_"
   gradientUnits="userSpaceOnUse"
   x1="937.02722"
   y1="631.14282"
   x2="1645.0637"
   y2="631.14282">
				<stop
   offset="0"
   style="stop-color:#EE2039"
   id="stop76" />
				<stop
   offset="0.5"
   style="stop-color:#991F20"
   id="stop77" />
				<stop
   offset="1"
   style="stop-color:#EE2039"
   id="stop78" />
			</linearGradient>
			<path
   style="fill:url(#SVGID_00000044146667542091740030000014293706924708467871_)"
   d="m 1477.32,632.5 h -19.85 c -1.52,0 -2.85,-0.26 -3.99,-0.77 -1.14,-0.51 -2.02,-1.24 -2.65,-2.18 -0.63,-0.94 -0.94,-2.05 -0.94,-3.32 0,-1.21 0.31,-2.29 0.92,-3.23 0.62,-0.94 1.52,-1.68 2.71,-2.22 1.19,-0.53 2.64,-0.8 4.34,-0.8 h 19.45 c 1.76,0 3.28,0.26 4.54,0.77 1.26,0.51 2.42,1.34 3.46,2.49 l -2.83,2.62 c -0.49,-0.78 -1.16,-1.37 -2.02,-1.77 -0.85,-0.4 -1.93,-0.6 -3.25,-0.6 h -19.39 c -1.19,0 -2.1,0.25 -2.72,0.75 -0.63,0.5 -0.94,1.16 -0.94,1.98 0,0.9 0.33,1.59 0.98,2.05 0.66,0.46 1.61,0.69 2.86,0.69 h 19.94 c 1.58,0 2.95,0.28 4.12,0.83 1.17,0.55 2.08,1.33 2.72,2.32 0.65,1 0.97,2.17 0.97,3.52 0,1.29 -0.33,2.44 -0.98,3.45 -0.66,1.01 -1.61,1.8 -2.85,2.37 -1.24,0.57 -2.75,0.86 -4.54,0.86 h -19.57 c -2.09,0 -3.86,-0.29 -5.29,-0.86 -1.44,-0.57 -2.71,-1.5 -3.82,-2.77 l 3.08,-2.83 c 0.57,0.88 1.37,1.57 2.39,2.06 1.02,0.49 2.22,0.74 3.62,0.74 h 19.66 c 1.27,0 2.25,-0.29 2.94,-0.86 0.69,-0.57 1.03,-1.32 1.03,-2.25 0.03,-2.03 -1.35,-3.04 -4.1,-3.04 z"
   id="path78" />
			
				<linearGradient
   id="SVGID_00000071559006398982289120000009670576942670570112_"
   gradientUnits="userSpaceOnUse"
   x1="937.02722"
   y1="631.14282"
   x2="1645.0637"
   y2="631.14282">
				<stop
   offset="0"
   style="stop-color:#EE2039"
   id="stop79" />
				<stop
   offset="0.5"
   style="stop-color:#991F20"
   id="stop80" />
				<stop
   offset="1"
   style="stop-color:#EE2039"
   id="stop81" />
			</linearGradient>
			<path
   style="fill:url(#SVGID_00000071559006398982289120000009670576942670570112_)"
   d="m 1510.07,642.13 h -4.31 v -18.37 h -16.65 v -3.6 h 37.57 v 3.6 h -16.62 v 18.37 z"
   id="path81" />
			
				<linearGradient
   id="SVGID_00000127733094776508692040000012881376353173044613_"
   gradientUnits="userSpaceOnUse"
   x1="937.02722"
   y1="631.14282"
   x2="1645.0637"
   y2="631.14282">
				<stop
   offset="0"
   style="stop-color:#EE2039"
   id="stop82" />
				<stop
   offset="0.5"
   style="stop-color:#991F20"
   id="stop83" />
				<stop
   offset="1"
   style="stop-color:#EE2039"
   id="stop84" />
			</linearGradient>
			<path
   style="fill:url(#SVGID_00000127733094776508692040000012881376353173044613_)"
   d="m 1542.99,620.16 h 7.2 l 16.86,21.97 h -5.39 l -3.91,-5.23 h -22.49 l -3.94,5.23 h -5.17 z m 12.19,13.32 -7.29,-9.76 h -2.68 l -7.35,9.76 z"
   id="path84" />
			
				<linearGradient
   id="SVGID_00000006707163914631775260000000455910851114167734_"
   gradientUnits="userSpaceOnUse"
   x1="937.02722"
   y1="631.14282"
   x2="1645.0637"
   y2="631.14282">
				<stop
   offset="0"
   style="stop-color:#EE2039"
   id="stop85" />
				<stop
   offset="0.5"
   style="stop-color:#991F20"
   id="stop86" />
				<stop
   offset="1"
   style="stop-color:#EE2039"
   id="stop87" />
			</linearGradient>
			<path
   style="fill:url(#SVGID_00000006707163914631775260000000455910851114167734_)"
   d="m 1587.52,642.13 h -4.31 v -18.37 h -16.65 v -3.6 h 37.57 v 3.6 h -16.62 v 18.37 z"
   id="path87" />
			
				<linearGradient
   id="SVGID_00000163794512933928984160000008020432053422794115_"
   gradientUnits="userSpaceOnUse"
   x1="937.02722"
   y1="631.14282"
   x2="1645.0637"
   y2="631.14282">
				<stop
   offset="0"
   style="stop-color:#EE2039"
   id="stop88" />
				<stop
   offset="0.5"
   style="stop-color:#991F20"
   id="stop89" />
				<stop
   offset="1"
   style="stop-color:#EE2039"
   id="stop90" />
			</linearGradient>
			<path
   style="fill:url(#SVGID_00000163794512933928984160000008020432053422794115_)"
   d="m 1608.38,620.16 h 30.86 v 3.35 h -26.56 v 5.26 h 26 v 3.32 h -26 v 6.68 h 26.56 v 3.35 h -30.86 z"
   id="path90" />
		</g>
		<g
   id="g93"
   style="fill:#ffffff">
			<path
   class="st30"
   d="m 500.34,425.89 c 6.04,-13.52 14.75,-25.34 26.11,-35.48 11.37,-10.14 24.83,-18.02 40.4,-23.65 15.56,-5.63 32.87,-8.45 51.92,-8.45 h 163.12 c 19.05,0 36.35,2.82 51.92,8.45 15.56,5.64 29.03,13.52 40.4,23.65 11.37,10.14 20.07,21.96 26.11,35.48 6.04,13.52 9.06,28.16 9.06,43.93 0,15.77 -3.02,30.41 -9.06,43.93 -6.04,13.52 -14.75,25.34 -26.11,35.48 -11.37,10.14 -24.83,18.02 -40.4,23.65 -15.57,5.64 -32.87,8.45 -51.92,8.45 H 618.76 c -19.05,0 -36.35,-2.81 -51.92,-8.45 -15.57,-5.63 -29.03,-13.52 -40.4,-23.65 -11.37,-10.14 -20.07,-21.96 -26.11,-35.48 -6.04,-13.52 -9.06,-28.16 -9.06,-43.93 0.01,-15.77 3.03,-30.41 9.07,-43.93 z m 45.31,82.48 c 6.96,11.37 16.79,20.33 29.49,26.88 12.7,6.56 27.75,9.83 45.16,9.83 h 160.05 c 17.4,0 32.46,-3.27 45.16,-9.83 12.7,-6.55 22.53,-15.51 29.49,-26.88 6.96,-11.37 10.44,-24.22 10.44,-38.55 0,-14.54 -3.48,-27.44 -10.44,-38.71 -6.96,-11.26 -16.79,-20.17 -29.49,-26.73 -12.7,-6.55 -27.75,-9.83 -45.16,-9.83 H 620.3 c -17.41,0 -32.46,3.28 -45.16,9.83 -12.7,6.56 -22.53,15.47 -29.49,26.73 -6.96,11.27 -10.44,24.17 -10.44,38.71 0,14.34 3.48,27.18 10.44,38.55 z"
   id="path91"
   style="fill:#ffffff" />
			<path
   class="st30"
   d="m 950.22,360.15 h 246.06 c 17.4,0 32.46,3.02 45.16,9.06 12.7,6.04 22.47,14.13 29.34,24.27 6.86,10.14 10.29,21.46 10.29,33.94 0,12.49 -3.43,23.86 -10.29,34.1 -6.86,10.24 -16.59,18.33 -29.18,24.27 -12.59,5.94 -27.7,8.91 -45.31,8.91 h -33.48 l 136.7,84.79 h -65.74 L 1098.3,494.7 H 993.53 v 84.79 h -43.31 z m 43.31,100.15 h 196.91 c 14.54,0 25.65,-3.07 33.33,-9.22 7.68,-6.14 11.52,-14.13 11.52,-23.96 0,-9.62 -3.84,-17.46 -11.52,-23.5 -7.68,-6.04 -18.79,-9.06 -33.33,-9.06 H 993.53 Z"
   id="path92"
   style="fill:#ffffff" />
			<path
   class="st30"
   d="m 1331.14,360.15 h 308.11 v 33.48 h -265.11 v 52.53 h 259.58 v 33.18 H 1374.14 V 546 h 265.11 v 33.48 h -308.11 z"
   id="path93"
   style="fill:#ffffff" />
		</g>
		
			<linearGradient
   id="SVGID_00000180353239909118023860000012854670709245545637_"
   gradientUnits="userSpaceOnUse"
   x1="491.2771"
   y1="631.14282"
   x2="3004.9087"
   y2="631.14282">
			<stop
   offset="0"
   style="stop-color:#F9D337"
   id="stop93" />
			<stop
   offset="0.2979"
   style="stop-color:#A98D30"
   id="stop94" />
			<stop
   offset="0.6543"
   style="stop-color:#F9D337"
   id="stop95" />
			<stop
   offset="1"
   style="stop-color:#A98D30"
   id="stop96" />
		</linearGradient>
		
			<rect
   x="491.28"
   y="628.34998"
   style="fill:url(#SVGID_00000180353239909118023860000012854670709245545637_)"
   width="418.09"
   height="5.5799999"
   id="rect96" />
	</g>
</g>
</svg>
